<svg width="230" height="165" viewBox="0 0 230 165" fill="none" xmlns="http://www.w3.org/2000/svg">
<path d="M92.0127 131.059H83.4232L83.89 125.882C81.0891 129.647 77.6346 132 73.9001 132C64.9372 132 58.9619 123.812 62.1363 100.941C64.7504 81.8353 72.2195 72.8 81.2758 72.8C85.3838 72.8 88.4648 74.7765 90.3321 78.5412L90.9857 73.6471H100.042L92.0127 131.059ZM71.3793 101.976C69.7921 114.118 69.8854 123.529 76.3275 123.529C80.9024 123.529 84.0767 117.882 85.5706 112.047L88.5582 91.0588C88.6516 85.3177 86.3175 81.2706 82.1161 81.2706C76.2342 81.2706 72.8731 90.6824 71.3793 101.976Z" fill="#BBE08A"/>
<path d="M50.3279 131.059H41.2716L52.3819 52H61.4382L50.3279 131.059Z" fill="#BBE08A"/>
<path d="M38.4073 113.553C34.3927 126.165 27.4837 132 16.8403 132C2.46224 132 -2.39268 119.671 1.15515 93.2235C4.79633 66.3059 13.3858 54.0706 27.6705 54.0706C37.0068 54.0706 41.675 60.7529 43.5423 69.8824L33.9258 71.9529C32.9922 66.6824 30.6581 63.4824 26.6435 63.4824C17.6805 63.4824 14.3194 72.6118 11.2384 93.2235C8.15743 113.553 9.93134 123.059 18.6142 123.059C23.3757 123.059 26.7368 119.294 29.4444 112.141L38.4073 113.553Z" fill="#BBE08A"/>
<path d="M113.834 23.0408L123.047 20.3991C124.871 20.2718 126.818 20.5712 128.888 21.2973C133.78 23.0612 137.862 28.0262 141.135 36.1924L151.369 63.5402C151.404 63.6621 154.724 59.9393 161.327 52.3719C169.933 42.515 175.642 35.0722 178.454 30.0435C179.034 28.8216 179.281 27.8272 179.194 27.0604C178.898 24.6382 177.926 22.8717 176.278 21.7608C175.174 21.1539 174.007 21.0265 172.779 21.3787C171.796 21.6605 170.876 21.4627 170.017 20.7854C169.543 20.5253 169.202 20.0294 168.992 19.2979C168.293 16.8594 169.524 13.7354 172.685 9.92597C175.548 6.46603 178.884 4.19012 182.692 3.09824C184.903 2.46424 187.183 2.53604 189.533 3.31366C194.04 4.66027 196.598 8.47922 197.205 14.7705C197.725 21.219 192.145 31.6598 180.464 46.0929C175.616 52.3652 169.214 59.9407 161.258 68.8195C157.482 72.8051 155.664 75.0417 155.804 75.5294L168.899 110.766C170.999 116.233 173.46 119.948 176.282 121.91C177.772 122.934 179.798 123.276 182.359 122.938L183.649 122.568L184.44 121.154C185.652 119.355 187.251 117.511 189.235 115.622C191.254 113.856 193.29 112.612 195.343 111.891C196.572 111.539 197.484 111.476 198.08 111.7C199.361 111.993 200.158 112.688 200.473 113.785C201.206 117.27 200.018 121.239 196.908 125.693C193.271 131.091 188.338 135.21 182.107 138.052C178.808 139.526 174.894 140.714 170.368 141.617C169.841 141.636 169.455 141.68 169.21 141.751C167.104 141.827 165.061 141.423 163.08 140.54C159.467 139.068 156.287 135.626 153.538 130.213C151.787 126.888 148.918 119.662 144.929 108.534C141.221 98.3821 139.349 93.245 139.314 93.123C138.945 93.2287 134.757 97.8605 126.748 107.018C115.033 120.406 107.726 129.692 104.826 134.878C104.246 136.1 104 137.094 104.086 137.861C104.382 140.283 105.354 142.05 107.002 143.161C107.633 143.508 108.273 143.654 108.922 143.6C109.975 143.562 110.624 143.508 110.87 143.437C111.975 143.12 112.931 143.44 113.737 144.396C115.367 145.908 114.961 148.664 112.518 152.663C110.129 156.383 107.179 159.076 103.669 160.742C101.159 161.726 99.1761 162.228 97.72 162.25C96.1411 162.307 94.2032 161.807 91.9062 160.75C88.1191 158.669 86.1844 154.936 86.1022 149.55C86.0682 148.504 86.113 147.501 86.2368 146.542C87.4717 139.722 93.7272 129.55 105.003 116.024C111.555 107.812 120.46 97.6057 131.717 85.4052C133.965 83.0453 135.036 81.6825 134.931 81.3167L123.726 51.2785C120.331 43.1475 116.695 39.044 112.818 38.9682C110.134 39.3421 108.826 39.6509 108.896 39.8948L107.789 41.5976C105.048 45.9463 101.625 48.8413 97.5181 50.2827C96.1669 50.6701 95.1318 50.769 94.4128 50.5794C93.8515 50.4764 93.2817 50.112 92.7035 49.4861C92.4408 49.0336 92.2485 48.363 92.1266 47.4743C92.0434 43.0119 94.0919 38.3341 98.272 33.4409C101.908 28.9676 107.095 25.5009 113.834 23.0408Z" fill="#7ECA56"/>
</svg>
